<?xml version="1.0" encoding="utf-8"?>
<!-- Generator: Adobe Illustrator 25.2.1, SVG Export Plug-In . SVG Version: 6.00 Build 0)  -->
<svg version="1.1" id="Layer_1" xmlns="http://www.w3.org/2000/svg" xmlns:xlink="http://www.w3.org/1999/xlink" x="0px" y="0px"
	 viewBox="0 0 24 28" style="enable-background:new 0 0 24 28;" xml:space="preserve">
<g>
	<path d="M12.1,28.1c-0.2,0-0.4-0.1-0.6-0.2c-0.3-0.3-8.4-6.4-8.4-12.8c0-5,4-9,9-9s9,4,9,9c0,6.4-8.1,12.5-8.4,12.8
		C12.5,28,12.3,28.1,12.1,28.1z M12.1,8.1c-3.9,0-7,3.1-7,7c0,4.5,5.2,9.2,7,10.7c1.8-1.5,7-6.2,7-10.7C19.1,11.2,16,8.1,12.1,8.1z"
		/>
</g>
<g>
	<path d="M12.1,19.1c-2.2,0-4-1.8-4-4s1.8-4,4-4s4,1.8,4,4S14.3,19.1,12.1,19.1z M12.1,13.1c-1.1,0-2,0.9-2,2s0.9,2,2,2s2-0.9,2-2
		S13.2,13.1,12.1,13.1z"/>
</g>
</svg>
