<?xml version="1.0" encoding="utf-8"?>
<!-- Generator: Adobe Illustrator 25.2.1, SVG Export Plug-In . SVG Version: 6.00 Build 0)  -->
<svg version="1.1" id="Layer_1" xmlns="http://www.w3.org/2000/svg" xmlns:xlink="http://www.w3.org/1999/xlink" x="0px" y="0px"
	 viewBox="0 0 12 28" style="enable-background:new 0 0 12 28;" xml:space="preserve">
<g>
	<path d="M11,18.7c-0.3,0-0.5-0.1-0.7-0.3L6,14.1l-4.3,4.3c-0.4,0.4-1,0.4-1.4,0s-0.4-1,0-1.4l5-5c0.4-0.4,1-0.4,1.4,0l5,5
		c0.4,0.4,0.4,1,0,1.4C11.5,18.6,11.3,18.7,11,18.7z"/>
</g>
<g>
	<path d="M11,25.7c-0.3,0-0.5-0.1-0.7-0.3L6,21.1l-4.3,4.3c-0.4,0.4-1,0.4-1.4,0s-0.4-1,0-1.4l5-5c0.4-0.4,1-0.4,1.4,0l5,5
		c0.4,0.4,0.4,1,0,1.4C11.5,25.6,11.3,25.7,11,25.7z"/>
</g>
<g>
	<path d="M11,11.7c-0.3,0-0.5-0.1-0.7-0.3L6,7.1l-4.3,4.3c-0.4,0.4-1,0.4-1.4,0s-0.4-1,0-1.4l5-5c0.4-0.4,1-0.4,1.4,0l5,5
		c0.4,0.4,0.4,1,0,1.4C11.5,11.6,11.3,11.7,11,11.7z"/>
</g>
</svg>
