<?xml version="1.0" encoding="utf-8"?>
<!-- Generator: Adobe Illustrator 25.2.1, SVG Export Plug-In . SVG Version: 6.00 Build 0)  -->
<svg version="1.1" id="Layer_1" xmlns="http://www.w3.org/2000/svg" xmlns:xlink="http://www.w3.org/1999/xlink" x="0px" y="0px"
	 viewBox="0 0 12 28" style="enable-background:new 0 0 12 28;" xml:space="preserve">
<g>
	<path d="M1,18c0.3,0,0.5,0.1,0.7,0.3L6,22.6l4.3-4.3c0.4-0.4,1-0.4,1.4,0s0.4,1,0,1.4l-5,5c-0.4,0.4-1,0.4-1.4,0l-5-5
		c-0.4-0.4-0.4-1,0-1.4C0.5,18.1,0.7,18,1,18z"/>
</g>
<g>
	<path d="M1,11c0.3,0,0.5,0.1,0.7,0.3L6,15.6l4.3-4.3c0.4-0.4,1-0.4,1.4,0s0.4,1,0,1.4l-5,5c-0.4,0.4-1,0.4-1.4,0l-5-5
		c-0.4-0.4-0.4-1,0-1.4C0.5,11.1,0.7,11,1,11z"/>
</g>
</svg>
