<?xml version="1.0" encoding="utf-8"?>
<!-- Generator: Adobe Illustrator 25.2.1, SVG Export Plug-In . SVG Version: 6.00 Build 0)  -->
<svg version="1.1" id="Layer_1" xmlns="http://www.w3.org/2000/svg" xmlns:xlink="http://www.w3.org/1999/xlink" x="0px" y="0px"
	 viewBox="0 0 24 28" style="enable-background:new 0 0 24 28;" xml:space="preserve">
<path d="M5,8c-2.2,0-4,1.8-4,4c0,1.9,1.3,3.4,3,3.9V27c0,0.6,0.4,1,1,1s1-0.4,1-1V15.9c1.7-0.4,3-2,3-3.9C9,9.8,7.2,8,5,8z M5,14
	c-1.1,0-2-0.9-2-2s0.9-2,2-2s2,0.9,2,2S6.1,14,5,14z"/>
<path d="M20,20.1V14c0-1.7-1.3-3-3-3h-2.6l1.3-1.3c0.4-0.4,0.4-1,0-1.4s-1-0.4-1.4,0l-3,3c-0.1,0.1-0.2,0.2-0.2,0.3
	C11,11.7,11,11.9,11,12s0,0.3,0.1,0.4c0.1,0.1,0.1,0.2,0.2,0.3l3,3c0.2,0.2,0.5,0.3,0.7,0.3s0.5-0.1,0.7-0.3c0.4-0.4,0.4-1,0-1.4
	L14.4,13H17c0.6,0,1,0.4,1,1v6.1c-1.7,0.4-3,2-3,3.9c0,2.2,1.8,4,4,4s4-1.8,4-4C23,22.1,21.7,20.6,20,20.1z M19,26c-1.1,0-2-0.9-2-2
	s0.9-2,2-2s2,0.9,2,2S20.1,26,19,26z"/>
</svg>
