<?xml version="1.0" encoding="utf-8"?>
<!-- Generator: Adobe Illustrator 25.2.1, SVG Export Plug-In . SVG Version: 6.00 Build 0)  -->
<svg version="1.1" id="Layer_1" xmlns="http://www.w3.org/2000/svg" xmlns:xlink="http://www.w3.org/1999/xlink" x="0px" y="0px"
	 viewBox="0 0 24 28" style="enable-background:new 0 0 24 28;" xml:space="preserve">
<g>
	<path d="M19,8.1h-2v-1c0-0.6-0.4-1-1-1s-1,0.4-1,1v1H9v-1c0-0.6-0.4-1-1-1s-1,0.4-1,1v1H5c-1.7,0-3,1.3-3,3v14c0,1.7,1.3,3,3,3h14
		c1.7,0,3-1.3,3-3v-14C22,9.4,20.7,8.1,19,8.1z M5,10.1h2v1c0,0.6,0.4,1,1,1s1-0.4,1-1v-1h6v1c0,0.6,0.4,1,1,1s1-0.4,1-1v-1h2
		c0.6,0,1,0.4,1,1v3H4v-3C4,10.5,4.4,10.1,5,10.1z M19,26.1H5c-0.6,0-1-0.4-1-1v-9h16v9C20,25.6,19.6,26.1,19,26.1z"/>
	<path d="M14.3,18.4L11,21.7l-1.3-1.3c-0.4-0.4-1-0.4-1.4,0s-0.4,1,0,1.4l2,2c0.2,0.2,0.5,0.3,0.7,0.3s0.5-0.1,0.7-0.3l4-4
		c0.4-0.4,0.4-1,0-1.4S14.7,18,14.3,18.4z"/>
</g>
</svg>
