<?xml version="1.0" encoding="utf-8"?>
<!-- Generator: Adobe Illustrator 25.2.1, SVG Export Plug-In . SVG Version: 6.00 Build 0)  -->
<svg version="1.1" id="Layer_1" xmlns="http://www.w3.org/2000/svg" xmlns:xlink="http://www.w3.org/1999/xlink" x="0px" y="0px"
	 viewBox="0 0 24 28" style="enable-background:new 0 0 24 28;" xml:space="preserve">
<g>
	<path d="M19,8h-2V7c0-0.6-0.4-1-1-1s-1,0.4-1,1v1H9V7c0-0.6-0.4-1-1-1S7,6.4,7,7v1H5c-1.7,0-3,1.3-3,3v14c0,1.7,1.3,3,3,3h14
		c1.7,0,3-1.3,3-3V11C22,9.3,20.7,8,19,8z M5,10h2v1c0,0.6,0.4,1,1,1s1-0.4,1-1v-1h6v1c0,0.6,0.4,1,1,1s1-0.4,1-1v-1h2
		c0.6,0,1,0.4,1,1v3H4v-3C4,10.4,4.4,10,5,10z M19,26H5c-0.6,0-1-0.4-1-1v-9h16v9C20,25.6,19.6,26,19,26z"/>
	<path d="M14.3,18.3L11,21.6l-1.3-1.3c-0.4-0.4-1-0.4-1.4,0s-0.4,1,0,1.4l2,2c0.2,0.2,0.5,0.3,0.7,0.3s0.5-0.1,0.7-0.3l4-4
		c0.4-0.4,0.4-1,0-1.4S14.7,17.9,14.3,18.3z"/>
</g>
</svg>
