<?xml version="1.0" encoding="utf-8"?>
<!-- Generator: Adobe Illustrator 25.2.1, SVG Export Plug-In . SVG Version: 6.00 Build 0)  -->
<svg version="1.1" id="Layer_1" xmlns="http://www.w3.org/2000/svg" xmlns:xlink="http://www.w3.org/1999/xlink" x="0px" y="0px"
	 viewBox="0 0 24 28" style="enable-background:new 0 0 24 28;" xml:space="preserve">
<path d="M22.1,16.9c-0.3-2.7-1.6-5-3.7-6.7c-2.1-1.7-4.7-2.4-7.3-2.2c-2.1,0.2-4,1.1-5.6,2.4l-1.3,1.2V7.9c0-0.6-0.4-1-1-1
	s-1,0.4-1,1v6c0,0.1,0,0.1,0,0.1c0,0.1,0,0.1,0,0.2c0,0.1,0.1,0.1,0.1,0.2c0,0,0,0.1,0.1,0.1c0,0,0,0,0,0c0.1,0.1,0.1,0.1,0.2,0.1
	c0,0,0.1,0.1,0.1,0.1c0.1,0,0.1,0,0.2,0c0.1,0,0.1,0,0.2,0c0,0,0,0,0,0h6c0.6,0,1-0.4,1-1s-0.4-1-1-1H5.8l1.1-1
	c1.3-1.1,2.8-1.8,4.4-2c2.1-0.2,4.2,0.4,5.9,1.7c1.7,1.3,2.7,3.3,2.9,5.4c0.2,2.1-0.4,4.2-1.7,5.9C17,24.7,15.1,25.7,13,26
	c-4.4,0.5-8.3-2.7-8.8-7.1c-0.1-0.5-0.6-0.9-1.1-0.9c-0.5,0.1-0.9,0.6-0.9,1.1c0.5,5.1,4.9,8.9,9.9,8.9c0.4,0,0.7,0,1.1-0.1
	c2.7-0.3,5-1.6,6.7-3.7C21.6,22.2,22.3,19.6,22.1,16.9z"/>
</svg>
