<?xml version="1.0" encoding="utf-8"?>
<!-- Generator: Adobe Illustrator 25.2.1, SVG Export Plug-In . SVG Version: 6.00 Build 0)  -->
<svg version="1.1" id="Layer_1" xmlns="http://www.w3.org/2000/svg" xmlns:xlink="http://www.w3.org/1999/xlink" x="0px" y="0px"
	 viewBox="0 0 24 28" style="enable-background:new 0 0 24 28;" xml:space="preserve">
<g>
	<path d="M22,11.2c-0.1-0.6-0.8-1-2-1.2c-0.8-0.1-1.4-0.2-2.1-0.2c-1.7,0-2.9,0.6-6.2,2.3c-0.6,0-1.2,0.1-1.5,0.2
		c-0.3,0.1-0.3,0.4,0,0.6c-0.8,0.4-1.7,0.9-2.7,1.4c-1.2-0.4-3.4-1-4.3-1.3C2.4,12.8,2,13.7,2,13.7s0.8,2,1.3,3
		c-0.1,0.1-0.2,0.3-0.2,0.4C3,17.5,3,18,3.4,18.4c0.4,0.5,1,0.7,1.9,0.7c1,0,2.3-0.3,4-0.9l-0.3,0.5c-0.5,0.3-1.1,0.8-1.7,1.4
		C7.1,20.2,7,20.4,7,20.7c0,0.1,0.1,0.2,0.3,0.3c0,0,0,0,0.1,0l0,0c-0.4,0.7-0.1,1,0.7,0.8c0.5-0.2,1.1-0.5,1.6-0.9
		c0.8-0.2,2-0.5,3.4-1.1c0.3-0.1,0.5-0.7,0.4-1.3c-0.2-0.8-0.6-0.9-0.8-0.9l1-1.2c2.2-1,4.6-2.3,7.4-3.8C22,12.1,22,11.5,22,11.2
		 M7.6,20.8c0,0-0.1,0-0.1,0c-0.1,0-0.1-0.1-0.1-0.1c0-0.1,0-0.2,0.1-0.3c0.3-0.4,0.7-0.6,1-0.9L7.6,20.8 M13.1,18.7
		c0.1,0.5,0,0.9-0.2,1c-1.1,0.5-2,0.7-2.8,0.9c0.1-0.1,0.2-0.2,0.3-0.3l1.9-2.3c0,0,0,0,0.1,0l0.2,0C12.8,17.9,13,18.2,13.1,18.7
		 M20.8,12c-2.4,1.3-4.4,2.4-6.2,3.3l0.8-1c0.5-0.6,0.3-0.9-0.4-0.5l-3,1.3c-0.8,0.3-1.1,0.5-1.5,1.2l-0.7,1.1
		c-2.2,0.8-3.6,1.1-4.5,1.1c-1.7,0-1.7-1-1.6-1.2L8.4,15c0.2-0.1,0.2-0.2,0-0.3h0c1.4-0.7,2.5-1.3,3.4-1.8c0.4-0.2,0.8-0.4,1.2-0.6
		c2.6-1.4,3.6-1.8,5-1.8c0.6,0,1.2,0.1,2,0.2C21.3,10.8,21.9,11.5,20.8,12"/>
	<path d="M12.5,18.1c-0.1,0.2-0.1,0.4,0,0.7c0.1,0.4,0.2,0.7,0.4,0.8c0.1-0.2,0.1-0.4,0-0.7C12.8,18.5,12.7,18.2,12.5,18.1"/>
	<path d="M17.5,11.7c0,0,0.2,0.3,0.6,0.1c0.4-0.1,0.8-0.5,1-0.9l-0.7-0.1C18.3,11,17.5,11.7,17.5,11.7"/>
	<circle cx="8.5" cy="15.8" r="0.3"/>
	<circle cx="9.6" cy="15.2" r="0.3"/>
	<circle cx="10.6" cy="14.7" r="0.3"/>
	<circle cx="11.7" cy="14.1" r="0.3"/>
	<circle cx="12.8" cy="13.5" r="0.3"/>
	<path d="M13.8,12.7c-0.1,0.1-0.2,0.2-0.1,0.4c0.1,0.1,0.2,0.2,0.4,0.1c0.1-0.1,0.2-0.2,0.1-0.4C14.1,12.7,13.9,12.6,13.8,12.7"/>
	<circle cx="15" cy="12.4" r="0.3"/>
	<ellipse cx="11.7" cy="27.1" rx="7.4" ry="0.8"/>
</g>
</svg>
