<?xml version="1.0" encoding="utf-8"?>
<!-- Generator: Adobe Illustrator 25.2.1, SVG Export Plug-In . SVG Version: 6.00 Build 0)  -->
<svg version="1.1" id="Layer_1" xmlns="http://www.w3.org/2000/svg" xmlns:xlink="http://www.w3.org/1999/xlink" x="0px" y="0px"
	 viewBox="0 0 24 28" style="enable-background:new 0 0 24 28;" xml:space="preserve">
<path d="M14.3,13.7h-1.8v8.4h1.8c1,0,1.8-0.8,1.8-1.7v-4.9C16.1,14.5,15.3,13.7,14.3,13.7"/>
<path d="M18.7,7.9H5.3C3.5,7.9,2,9.4,2,11.2v13.4c0,1.8,1.5,3.3,3.3,3.3h13.4c1.8,0,3.3-1.5,3.3-3.3V11.2C22,9.4,20.5,7.9,18.7,7.9
	 M9,23.6H7.6V12.2H9V23.6 M17.7,20.4c0,0.4-0.1,0.9-0.3,1.2c-0.2,0.4-0.4,0.7-0.7,1c-0.3,0.3-0.7,0.5-1.1,0.7
	c-0.4,0.2-0.8,0.3-1.3,0.3H11V12.2h3.3c0.5,0,0.9,0.1,1.3,0.3c0.4,0.2,0.8,0.4,1.1,0.7c0.3,0.3,0.5,0.6,0.7,1
	c0.2,0.4,0.3,0.8,0.3,1.3L17.7,20.4"/>
</svg>
