<?xml version="1.0" encoding="utf-8"?>
<!-- Generator: Adobe Illustrator 25.2.1, SVG Export Plug-In . SVG Version: 6.00 Build 0)  -->
<svg version="1.1" id="Layer_1" xmlns="http://www.w3.org/2000/svg" xmlns:xlink="http://www.w3.org/1999/xlink" x="0px" y="0px"
	 viewBox="0 0 24 28" style="enable-background:new 0 0 24 28;" xml:space="preserve">
<g>
	<path d="M4.2,24.8c-4.3-4.3-4.3-11.3,0-15.6s11.3-4.3,15.6,0s4.3,11.3,0,15.6S8.5,29.1,4.2,24.8z M18.4,10.6
		c-3.5-3.5-9.2-3.5-12.7,0s-3.5,9.2,0,12.7s9.2,3.5,12.7,0C21.9,19.9,21.9,14.2,18.4,10.6z"/>
</g>
<g>
	<path d="M7,20v-6.8c0-0.4,0.1-0.6,0.2-0.8s0.4-0.3,0.6-0.3c0.3,0,0.5,0.1,0.6,0.3s0.2,0.4,0.2,0.8V20c0,0.4-0.1,0.6-0.2,0.8
		S8.1,21,7.8,21c-0.2,0-0.5-0.1-0.6-0.3S7,20.3,7,20z"/>
	<path d="M11.7,12.3H14c0.6,0,1.1,0.1,1.5,0.2s0.8,0.3,1.1,0.6c0.9,0.8,1.3,1.9,1.3,3.5c0,0.5,0,1-0.1,1.4s-0.2,0.8-0.4,1.2
		S17,19.8,16.8,20c-0.2,0.2-0.5,0.4-0.8,0.5s-0.6,0.2-0.9,0.3s-0.7,0.1-1.1,0.1h-2.3c-0.3,0-0.6,0-0.7-0.1s-0.3-0.2-0.3-0.4
		s-0.1-0.4-0.1-0.7v-6.3c0-0.4,0.1-0.6,0.3-0.8S11.4,12.3,11.7,12.3z M12.4,13.7v5.8h1.3c0.3,0,0.5,0,0.7,0s0.3-0.1,0.5-0.1
		s0.3-0.2,0.5-0.3c0.6-0.5,0.9-1.3,0.9-2.5c0-0.8-0.1-1.5-0.4-1.9s-0.6-0.7-0.9-0.8s-0.8-0.2-1.4-0.2H12.4z"/>
</g>
</svg>
