<?xml version="1.0" encoding="utf-8"?>
<!-- Generator: Adobe Illustrator 25.2.1, SVG Export Plug-In . SVG Version: 6.00 Build 0)  -->
<svg version="1.1" id="Layer_1" xmlns="http://www.w3.org/2000/svg" xmlns:xlink="http://www.w3.org/1999/xlink" x="0px" y="0px"
	 viewBox="0 0 24 28" style="enable-background:new 0 0 24 28;" xml:space="preserve">
<path d="M20.4,7.1c-0.4-0.2-0.8-0.1-1.1,0.2c0,0-0.9,0.7-3.3,0.7c-1.3,0-2.4-0.5-3.6-0.9C11.1,6.5,9.7,6,8,6C4.8,6,3.5,7.1,3.3,7.3
	C3.1,7.5,3,7.7,3,8v12v7c0,0.6,0.4,1,1,1s1-0.4,1-1v-6.5C5.5,20.3,6.4,20,8,20c1.3,0,2.4,0.5,3.6,0.9C13,21.5,14.3,22,16,22
	c3.2,0,4.5-1.1,4.7-1.3c0.2-0.2,0.3-0.4,0.3-0.7V8C21,7.6,20.8,7.3,20.4,7.1z M19,19.5c-0.4,0.2-1.4,0.5-3,0.5
	c-1.3,0-2.4-0.5-3.6-0.9C11.1,18.5,9.7,18,8,18c-1.3,0-2.3,0.2-3,0.4V8.5C5.5,8.3,6.4,8,8,8c1.3,0,2.4,0.5,3.6,0.9
	C13,9.5,14.3,10,16,10c1.3,0,2.3-0.2,3-0.4V19.5z"/>
</svg>
