<?xml version="1.0" encoding="utf-8"?>
<!-- Generator: Adobe Illustrator 25.2.1, SVG Export Plug-In . SVG Version: 6.00 Build 0)  -->
<svg version="1.1" id="Layer_1" xmlns="http://www.w3.org/2000/svg" xmlns:xlink="http://www.w3.org/1999/xlink" x="0px" y="0px"
	 viewBox="0 0 24 28" style="enable-background:new 0 0 24 28;" xml:space="preserve">
<g>
	<path d="M19,28H5c-1.7,0-3-1.3-3-3V11c0-1.7,1.3-3,3-3h14c1.7,0,3,1.3,3,3v14C22,26.7,20.7,28,19,28z M5,10c-0.6,0-1,0.4-1,1v14
		c0,0.6,0.4,1,1,1h14c0.6,0,1-0.4,1-1V11c0-0.6-0.4-1-1-1H5z"/>
</g>
<g>
	<path d="M16,19H8c-0.6,0-1-0.4-1-1s0.4-1,1-1h8c0.6,0,1,0.4,1,1S16.6,19,16,19z"/>
</g>
<g>
	<path d="M12,23c-0.3,0-0.5-0.1-0.7-0.3c-0.4-0.4-0.4-1,0-1.4l3.3-3.3l-3.3-3.3c-0.4-0.4-0.4-1,0-1.4s1-0.4,1.4,0l4,4
		c0.2,0.2,0.3,0.4,0.3,0.7s-0.1,0.5-0.3,0.7l-4,4C12.5,22.9,12.3,23,12,23z"/>
</g>
</svg>
