<?xml version="1.0" encoding="utf-8"?>
<!-- Generator: Adobe Illustrator 25.2.1, SVG Export Plug-In . SVG Version: 6.00 Build 0)  -->
<svg version="1.1" id="Layer_1" xmlns="http://www.w3.org/2000/svg" xmlns:xlink="http://www.w3.org/1999/xlink" x="0px" y="0px"
	 viewBox="0 0 24 28" style="enable-background:new 0 0 24 28;" xml:space="preserve">
<g>
	<path d="M8.5,26H5c-0.6,0-1-0.4-1-1v-9h4c0.6,0,1-0.4,1-1s-0.4-1-1-1H4v-3c0-0.6,0.4-1,1-1h2v1c0,0.6,0.4,1,1,1s1-0.4,1-1v-1h6v1
		c0,0.6,0.4,1,1,1s1-0.4,1-1v-1h2c0.6,0,1,0.4,1,1v1.5c0,0.6,0.4,1,1,1s1-0.4,1-1V11c0-1.7-1.3-3-3-3h-2V7c0-0.6-0.4-1-1-1
		s-1,0.4-1,1v1H9V7c0-0.6-0.4-1-1-1S7,6.4,7,7v1H5c-1.7,0-3,1.3-3,3v14c0,1.7,1.3,3,3,3h3.5c0.6,0,1-0.4,1-1S9.1,26,8.5,26z"/>
	<path d="M17,20.8V19c0-0.6-0.4-1-1-1s-1,0.4-1,1v2.2c0,0.3,0.1,0.6,0.4,0.8l1.5,1.2c0.2,0.2,0.4,0.2,0.6,0.2c0.3,0,0.6-0.1,0.8-0.4
		c0.4-0.4,0.3-1.1-0.1-1.4L17,20.8z"/>
	<path d="M16,14c-3.9,0-7,3.1-7,7c0,3.9,3.1,7,7,7c3.9,0,7-3.1,7-7C23,17.1,19.9,14,16,14z M16,26c-2.8,0-5-2.2-5-5s2.2-5,5-5
		s5,2.2,5,5S18.8,26,16,26z"/>
</g>
</svg>
