<?xml version="1.0" encoding="utf-8"?>
<!-- Generator: Adobe Illustrator 25.2.1, SVG Export Plug-In . SVG Version: 6.00 Build 0)  -->
<svg version="1.1" id="Layer_1" xmlns="http://www.w3.org/2000/svg" xmlns:xlink="http://www.w3.org/1999/xlink" x="0px" y="0px"
	 viewBox="0 0 24 28" style="enable-background:new 0 0 24 28;" xml:space="preserve">
<g>
	<path d="M11.7,10c-5,0-9,4-9,9c0,2.1,0.8,4.1,2,5.6L3,26.3c-0.4,0.4-0.4,1,0,1.4C3.2,27.9,3.5,28,3.7,28c0.3,0,0.5-0.1,0.7-0.3
		L6.2,26c1.5,1.2,3.5,2,5.6,2c2.1,0,4.1-0.7,5.6-2l1.7,1.7c0.2,0.2,0.4,0.3,0.7,0.3c0.3,0,0.5-0.1,0.7-0.3c0.4-0.4,0.4-1,0-1.4
		l-1.7-1.7c1.2-1.5,2-3.5,2-5.6C20.7,14,16.7,10,11.7,10z M4.7,19c0-3.9,3.1-7,7-7s7,3.1,7,7s-3.1,7-7,7S4.7,22.9,4.7,19z"/>
	<path d="M12.7,18.6V15c0-0.6-0.4-1-1-1s-1,0.4-1,1v4c0,0.3,0.1,0.5,0.3,0.7l2,2c0.2,0.2,0.5,0.3,0.7,0.3s0.5-0.1,0.7-0.3
		c0.4-0.4,0.4-1,0-1.4L12.7,18.6z"/>
	<path d="M5.4,8.3C5,7.9,4.4,7.9,4,8.3l-3,3c-0.4,0.4-0.4,1,0,1.4C1.2,12.9,1.5,13,1.7,13s0.5-0.1,0.7-0.3l3-3
		C5.8,9.3,5.8,8.7,5.4,8.3z"/>
	<path d="M22.4,11.3l-3-3c-0.4-0.4-1-0.4-1.4,0s-0.4,1,0,1.4l3,3c0.2,0.2,0.5,0.3,0.7,0.3s0.5-0.1,0.7-0.3
		C22.8,12.3,22.8,11.7,22.4,11.3z"/>
</g>
</svg>
