<?xml version="1.0" encoding="utf-8"?>
<!-- Generator: Adobe Illustrator 25.2.1, SVG Export Plug-In . SVG Version: 6.00 Build 0)  -->
<svg version="1.1" id="Layer_1" xmlns="http://www.w3.org/2000/svg" xmlns:xlink="http://www.w3.org/1999/xlink" x="0px" y="0px"
	 viewBox="0 0 24 28" style="enable-background:new 0 0 24 28;" xml:space="preserve">
<g>
	<path d="M4.2,24.8c-4.3-4.3-4.3-11.3,0-15.6s11.3-4.3,15.6,0c4.3,4.3,4.3,11.3,0,15.6S8.5,29.1,4.2,24.8z M18.4,10.6
		c-3.5-3.5-9.2-3.5-12.7,0c-3.5,3.5-3.5,9.2,0,12.7s9.2,3.5,12.7,0C21.9,19.9,21.9,14.2,18.4,10.6z"/>
</g>
<g>
	<path d="M7.1,17.7c-0.2-0.2-0.3-0.4-0.3-0.7c0-0.6,0.4-1,1-1l8.5,0c0.6,0,1,0.4,1,1s-0.4,1-1,1l-8.5,0C7.5,18,7.2,17.9,7.1,17.7z"
		/>
</g>
</svg>
