<?xml version="1.0" encoding="utf-8"?>
<!-- Generator: Adobe Illustrator 25.2.1, SVG Export Plug-In . SVG Version: 6.00 Build 0)  -->
<svg version="1.1" id="Layer_1" xmlns="http://www.w3.org/2000/svg" xmlns:xlink="http://www.w3.org/1999/xlink" x="0px" y="0px"
	 viewBox="0 0 24 28" style="enable-background:new 0 0 24 28;" xml:space="preserve">
<path d="M21.6,7c-1.6-1.3-4-1.1-5.4,0.4L2.8,20.9c-0.1,0.1-0.2,0.3-0.3,0.4L1,26.8c-0.1,0.3,0,0.7,0.3,1C1.5,28,1.7,28.1,2,28.1
	c0.1,0,0.2,0,0.3,0l5.5-1.5c0.2,0,0.3-0.1,0.4-0.3l11.5-11.5c0,0,0,0,0,0s0,0,0,0l1.9-1.9c0.2-0.1,0.3-0.3,0.5-0.5
	c0.7-0.8,1-1.8,0.9-2.8C22.9,8.6,22.4,7.6,21.6,7z M7,24.7l-3.6,1l1-3.6L15,11.5l2.6,2.6L7,24.7z M20.6,11.1
	c-0.1,0.1-0.2,0.2-0.3,0.3L19,12.7l-2.6-2.6l1.3-1.3c0,0,0,0,0.1-0.1c0.7-0.8,1.8-0.9,2.6-0.2C20.7,8.8,21,9.3,21,9.8
	C21.1,10.2,20.9,10.7,20.6,11.1z"/>
</svg>
