<svg enable-background="new 0 0 413.2 512" viewBox="0 0 413.2 512" xmlns="http://www.w3.org/2000/svg"><path d="m17.3 263.7v237.6c0 6.6 5.4 12 12 12h355.6c6.6 0 12-5.4 12-12v-237.6z"/><path d="m69.6 179c-6.3 0-11.3-3.8-11.3-8.5v-56.1c0-4.7 5.1-8.5 11.3-8.5s11.3 3.8 11.3 8.5v56.1c.1 4.7-5 8.5-11.3 8.5z"/><path d="m384.9 142.5h-59.2v34.3c0 6.5-9.5 11.7-21.1 11.7s-21.1-5.3-21.1-11.7v-34.3h-192.7v34.3c0 6.5-9.5 11.7-21.1 11.7s-21.1-5.3-21.1-11.7v-34.3h-19.3c-6.6 0-12 5.4-12 12v80h379.6v-80c0-6.6-5.4-12-12-12z"/><path d="m304.6 179c-6.3 0-11.3-3.8-11.3-8.5v-56.1c0-4.7 5.1-8.5 11.3-8.5s11.3 3.8 11.3 8.5v56.1c.1 4.7-5 8.5-11.3 8.5z"/></svg>