<svg enable-background="new 0 0 512 512" viewBox="0 0 512 512" xmlns="http://www.w3.org/2000/svg"><path d="m73.8 301.3c0-100.6 81.7-182.3 182.2-182.3 23 0 45 4.3 65.3 12.1 7.8-7.1 16-13.4 24.3-19.7-27.7-13.1-58.1-20-89.6-20-56 0-108.8 21.7-148.4 61.4s-61.4 92.4-61.4 148.4c0 27.1 5.1 53.4 14.9 77.9 7.7-5.7 15.4-11.4 23.1-17.2-6.8-18.9-10.4-39.3-10.4-60.6z"/><path d="m438.2 301.3c0 100.4-81.7 182.2-182.2 182.2-54 0-102.7-23.7-136.1-61.2-8.3 4.3-16.4 9-24.2 14.4 3.8 4.4 7.7 8.8 11.9 12.9 39.7 39.6 92.4 61.4 148.4 61.4s108.7-21.8 148.4-61.4c39.6-39.7 61.4-92.3 61.4-148.4 0-46.6-15.1-90.8-42.8-127.1-8 4.8-16 9.5-24 14.3 24.6 31.1 39.2 70.3 39.2 112.9z"/><path d="m324.7 68.2h28v76.1h-28z" transform="matrix(.9487 -.3163 .3163 .9487 -16.203 112.5834)"/><path d="m288.6 123h67.8v28h-67.8z" transform="matrix(.9487 -.3163 .3163 .9487 -26.7663 109.027)"/><path d="m67.7 430.5h76.1v28h-76.1z" transform="matrix(.1651 -.9863 .9863 .1651 -350.1469 475.4429)"/><path d="m120.5 391.1h28v67.8h-28z" transform="matrix(.1651 -.9863 .9863 .1651 -306.8385 487.4702)"/></svg>