<svg enable-background="new 0 0 512 512" viewBox="0 0 512 512" xmlns="http://www.w3.org/2000/svg"><path d="m203 36h106v28h-106z"/><path d="m238 58h36.1v51.2h-36.1z"/><path d="m404.4 152.9c-39.7-39.6-92.4-61.4-148.4-61.4s-108.8 21.7-148.4 61.4c-4.6 4.6-8.9 9.4-13 14.3 6.9 6.2 13.6 12.4 20.3 18.9 33.4-40.9 84.2-67.1 141.1-67.1 100.5 0 182.2 81.7 182.2 182.2 0 100.4-81.7 182.2-182.2 182.2-50.2 0-95.8-20.4-128.8-53.4-.4.3-.8.6-1.2.9-7.8 4.8-15.2 9.5-22.3 14.6 1.3 1.4 2.6 2.7 3.9 4 39.7 39.6 92.4 61.4 148.4 61.4s108.7-21.8 148.4-61.4c39.6-39.7 61.4-92.3 61.4-148.4s-21.8-108.6-61.4-148.2z"/><circle cx="256" cy="301.3" r="46.8"/><path d="m363.3 178-131 91.7 58.7 50.9z"/><path d="m124 254.1c0 8.8-4.3 15.9-9.6 15.9h-97.3c-5.3 0-9.6-7.1-9.6-15.9s4.3-15.9 9.6-15.9h97.3c5.3 0 9.6 7.1 9.6 15.9z"/><path d="m124 306.8c0 7.7-4.3 13.9-9.6 13.9h-74.7c-5.3 0-9.6-6.2-9.6-13.9s4.3-13.9 9.6-13.9h74.7c5.3 0 9.6 6.2 9.6 13.9z"/><path d="m124 359.4c0 7.3-4.3 13.3-9.6 13.3h-52.1c-5.3 0-9.6-6-9.6-13.3s4.3-13.3 9.6-13.3h52.1c5.3 0 9.6 6 9.6 13.3z"/></svg>