<svg enable-background="new 0 0 512 512" viewBox="0 0 512 512" xmlns="http://www.w3.org/2000/svg"><path d="m160.6 288.8h190.9v36.1h-190.9z"/><path d="m238 211.3h36.1v190.9h-36.1z"/><path d="m256 511.1c-56 0-108.7-21.8-148.4-61.4-39.6-39.7-61.4-92.4-61.4-148.4s21.8-108.7 61.4-148.4 92.4-61.4 148.4-61.4 108.7 21.8 148.4 61.4c39.6 39.6 61.4 92.3 61.4 148.4s-21.8 108.7-61.4 148.4c-39.7 39.5-92.4 61.4-148.4 61.4zm0-392.1c-100.5 0-182.2 81.7-182.2 182.2s81.8 182.3 182.2 182.3c100.5 0 182.2-81.8 182.2-182.2 0-100.6-81.7-182.3-182.2-182.3z"/></svg>