<?xml version="1.0" encoding="utf-8"?>
<!-- Generator: Adobe Illustrator 25.2.1, SVG Export Plug-In . SVG Version: 6.00 Build 0)  -->
<svg version="1.1" id="Layer_1" xmlns="http://www.w3.org/2000/svg" xmlns:xlink="http://www.w3.org/1999/xlink" x="0px" y="0px"
	 viewBox="0 0 24 28" style="enable-background:new 0 0 24 28;" xml:space="preserve">
<path d="M1.5,17.3h2.3v0.8H1.5L1.5,17.3z"/>
<path d="M4.5,17.3h2.3v0.8H4.5L4.5,17.3z"/>
<path d="M7.5,17.3h2.3v0.8H7.5V17.3z"/>
<path d="M10.5,17.3h2.3v0.8h-2.3V17.3z"/>
<path d="M13.4,17.3h2.3v0.8h-2.3L13.4,17.3z"/>
<path d="M16.4,17.3h2.3v0.8h-2.3V17.3z"/>
<path d="M19.4,17.3h2.3v0.8h-2.3V17.3z"/>
<path d="M10.5,19h2.3v0.8h-2.3V19z"/>
<path d="M13.4,19h2.3v0.8h-2.3L13.4,19z"/>
<path d="M16.4,19h2.3v0.8h-2.3V19z"/>
<path d="M19.4,19h2.3v0.8h-2.3V19z"/>
<path d="M1.5,20.7h2.3v0.8H1.5L1.5,20.7z"/>
<path d="M4.5,20.7h2.3v0.8H4.5L4.5,20.7z"/>
<path d="M7.5,20.7h2.3v0.8H7.5V20.7z"/>
<path d="M10.5,20.7h2.3v0.8h-2.3V20.7z"/>
<path d="M13.4,20.7h2.3v0.8h-2.3L13.4,20.7z"/>
<path d="M16.4,20.7h2.3v0.8h-2.3V20.7z"/>
<path d="M19.4,20.7h2.3v0.8h-2.3V20.7z"/>
<path d="M1.5,22.4h2.3v0.8H1.5L1.5,22.4z"/>
<path d="M4.5,22.4h2.3v0.8H4.5L4.5,22.4z"/>
<path d="M7.5,22.4h2.3v0.8H7.5V22.4z"/>
<path d="M10.5,22.4h2.3v0.8h-2.3V22.4z"/>
<path d="M13.4,22.4h2.3v0.8h-2.3L13.4,22.4z"/>
<path d="M16.4,22.4h2.3v0.8h-2.3V22.4z"/>
<path d="M19.4,22.4h2.3v0.8h-2.3V22.4z"/>
<path d="M1.5,24.1h2.3v0.8H1.5L1.5,24.1z"/>
<path d="M4.5,24.1h2.3v0.8H4.5L4.5,24.1z"/>
<path d="M7.5,24.1h2.3v0.8H7.5V24.1z"/>
<path d="M10.5,24.1h2.3v0.8h-2.3V24.1z"/>
<path d="M13.4,24.1h2.3v0.8h-2.3L13.4,24.1z"/>
<path d="M16.4,24.1h2.3v0.8h-2.3V24.1z"/>
<path d="M19.4,24.1h2.3v0.8h-2.3V24.1z"/>
<path d="M1.5,25.8h2.3v0.8H1.5L1.5,25.8z"/>
<path d="M4.5,25.8h2.3v0.8H4.5L4.5,25.8z"/>
<path d="M7.5,25.8h2.3v0.8H7.5V25.8z"/>
<path d="M10.5,25.8h2.3v0.8h-2.3V25.8z"/>
<path d="M13.4,25.8h2.3v0.8h-2.3L13.4,25.8z"/>
<path d="M16.4,25.8h2.3v0.8h-2.3V25.8z"/>
<path d="M22.9,11.4h-0.7c-2-1.2-9.5-5.8-10.6-5.8c-1.1,0-8.3,4.6-10.2,5.8H1.1c-0.6,0-1.1,0.5-1.1,1.2v2.6v1.2v10.5
	C0,27.5,0.5,28,1.1,28h0.8h20.2h0.8c0.6,0,1.1-0.5,1.1-1.2V12.6C24,11.9,23.5,11.4,22.9,11.4 M11,6.2c-0.1,0.1-0.1,0.3-0.1,0.4
	c0,0.4,0.3,0.8,0.7,0.8c0.4,0,0.7-0.3,0.7-0.8c0-0.2,0-0.3-0.1-0.4c1.7,0.7,6,3.2,9.3,5.2H2.1C5.2,9.4,9.3,6.9,11,6.2 M14.1,12.4
	h0.8l0.6,1.3l0.6-1.3h0.7l-1,1.9v1.2h-0.6v-1.2L14.1,12.4 M14.3,15v0.6h-2.2v-3.1h0.6V15H14.3 M9.7,14.8C9.8,15,10,15,10.2,15
	c0.3,0,0.4-0.1,0.5-0.3c0-0.1,0.1-0.3,0.1-0.5v-1.9h0.7v1.9c0,0.3-0.1,0.6-0.2,0.8c-0.2,0.3-0.5,0.5-1.1,0.5c-0.5,0-0.9-0.2-1.1-0.5
	C9.1,14.9,9,14.6,9,14.3v-1.9h0.7v1.9C9.7,14.5,9.7,14.7,9.7,14.8 M7.1,14.9c0,0.1,0.1,0.1,0.3,0.1c0.1,0,0.2-0.1,0.3-0.2
	c0-0.1,0-0.2,0-0.3v-2.2h0.6v2.1c0,0.3,0,0.5-0.1,0.6c-0.1,0.3-0.4,0.4-0.8,0.4c-0.4,0-0.7-0.1-0.8-0.3c-0.1-0.2-0.2-0.5-0.2-0.9
	v-0.1H7v0.1C7,14.6,7,14.8,7.1,14.9 M22.4,26.8c0,0.2-0.1,0.4-0.3,0.4h-21c-0.2,0-0.3-0.2-0.3-0.4V16.3h21.5L22.4,26.8"/>
</svg>
