<?xml version="1.0" encoding="utf-8"?>
<!-- Generator: Adobe Illustrator 25.2.1, SVG Export Plug-In . SVG Version: 6.00 Build 0)  -->
<svg version="1.1" id="Layer_1" xmlns="http://www.w3.org/2000/svg" xmlns:xlink="http://www.w3.org/1999/xlink" x="0px" y="0px"
	 viewBox="0 0 24 28" style="enable-background:new 0 0 24 28;" xml:space="preserve">
<g>
	<path d="M19.4,28l-2-2.2c-1.6,1-3.5,1.6-5.4,1.6c-5.7,0-10.4-5-10.4-11h4.1c0,3.8,2.8,6.6,6.3,6.6c0.9,0,1.7-0.2,2.5-0.5l-2.1-2.3
		h7.1V28"/>
	<path d="M18.4,16.4c0-3.6-2.8-6.3-6.3-6.3c-0.9,0-1.8,0.2-2.6,0.5l2.2,2.1H4.6V5.9l1.8,1.8C8.1,6.6,10.1,6,12.1,6
		c5.7,0,10.4,4.8,10.4,10.4L18.4,16.4L18.4,16.4z"/>
</g>
</svg>
