<?xml version="1.0" encoding="utf-8"?>
<!-- Generator: Adobe Illustrator 25.2.1, SVG Export Plug-In . SVG Version: 6.00 Build 0)  -->
<svg version="1.1" id="Layer_1" xmlns="http://www.w3.org/2000/svg" xmlns:xlink="http://www.w3.org/1999/xlink" x="0px" y="0px"
	 viewBox="0 0 24 28" style="enable-background:new 0 0 24 28;" xml:space="preserve">
<path d="M19.8,7.5c0.4,0,0.7-0.3,0.7-0.7V5.7c0-0.4-0.3-0.7-0.7-0.7H4.2C3.8,5,3.6,5.3,3.6,5.7v1.1c0,0.4,0.3,0.7,0.7,0.7h0.4v18
	H4.2c-0.4,0-0.7,0.3-0.7,0.7v1.1c0,0.4,0.3,0.7,0.7,0.7h15.6c0.4,0,0.7-0.3,0.7-0.7v-1.1c0-0.4-0.3-0.7-0.7-0.7h-0.4v-18H19.8
	 M5.3,25.5v-18H6c-0.2,0-0.3,0.1-0.3,0.3v0.9c0,0.2,0.1,0.3,0.3,0.3v0c0,3.2,0.5,6.3,4.2,7.3l0.2,0.1c0.2,0.1,0.4,0.1,0.4,0.2
	c-0.1,0-0.3,0.1-0.4,0.2l-0.2,0.1C6.5,17.8,6,20.9,6,24v0c-0.2,0-0.3,0.1-0.3,0.3v0.9c0,0.2,0.1,0.3,0.3,0.3L5.3,25.5 M13.4,17.3
	l0.2,0.1c2.6,0.8,3.6,2.5,3.7,6.3h-5c-0.1-1.8-0.2-6.3-0.2-7.2c0-0.3,0.6-0.7,0.8-0.9c1.1-0.6,2.5-1.9,2.5-3.2H8.6
	c0,1.3,1.4,2.6,2.5,3.2c0.3,0.2,0.8,0.6,0.8,0.9c0,0.9-0.1,5.4-0.2,7.2h-5c0.1-3.8,1.1-5.5,3.7-6.3l0.2-0.1c0.5-0.2,1-0.3,1-0.8
	c0-0.5-0.5-0.7-1-0.8l-0.2-0.1c-2.6-0.8-3.6-2.5-3.7-6.3h10.6c-0.1,3.8-1.1,5.5-3.7,6.3l-0.2,0.1c-0.5,0.2-1,0.3-1,0.8
	C12.5,17,12.9,17.2,13.4,17.3 M18.7,25.5H18c0.2,0,0.3-0.1,0.3-0.3v-0.9c0-0.2-0.1-0.3-0.3-0.3v0c0-3.2-0.5-6.3-4.2-7.3l-0.2-0.1
	c-0.2,0-0.3-0.1-0.4-0.2c0.1,0,0.3-0.1,0.4-0.2l0.2-0.1c3.7-1.1,4.2-4.2,4.2-7.3v0c0.2,0,0.3-0.1,0.3-0.3V7.8c0-0.2-0.1-0.3-0.3-0.3
	h0.7V25.5"/>
</svg>
