<?xml version="1.0" encoding="utf-8"?>
<!-- Generator: Adobe Illustrator 25.2.1, SVG Export Plug-In . SVG Version: 6.00 Build 0)  -->
<svg version="1.1" id="Layer_1" xmlns="http://www.w3.org/2000/svg" xmlns:xlink="http://www.w3.org/1999/xlink" x="0px" y="0px"
	 viewBox="0 0 24 28" style="enable-background:new 0 0 24 28;" xml:space="preserve">
<g>
	<path d="M6.2,17.5H4.4l4.9,8L22,7.9h-1.8l-10.9,12L6.2,17.5z"/>
	<path d="M18.9,25.5c0,0.2-0.2,0.4-0.4,0.4H4.4c-0.2,0-0.4-0.2-0.4-0.4V11.5c0-0.2,0.2-0.4,0.4-0.4h9.6L16,9H2.7C2.3,9,2,9.3,2,9.7
		v17.6C2,27.7,2.3,28,2.7,28h17.6c0.4,0,0.7-0.3,0.7-0.7V13.6l-2.1,2.9V25.5"/>
</g>
</svg>
