<?xml version="1.0" encoding="utf-8"?>
<!-- Generator: Adobe Illustrator 25.2.1, SVG Export Plug-In . SVG Version: 6.00 Build 0)  -->
<svg version="1.1" id="Layer_1" xmlns="http://www.w3.org/2000/svg" xmlns:xlink="http://www.w3.org/1999/xlink" x="0px" y="0px"
	 viewBox="0 0 24 28" style="enable-background:new 0 0 24 28;" xml:space="preserve">
<path d="M19.1,8.1h-2v-1c0-0.6-0.4-1-1-1s-1,0.4-1,1v1h-6v-1c0-0.6-0.4-1-1-1s-1,0.4-1,1v1h-2c-1.7,0-3,1.3-3,3v14c0,1.7,1.3,3,3,3
	h14c1.7,0,3-1.3,3-3v-14C22.1,9.4,20.7,8.1,19.1,8.1z M5.1,10.1h2v1c0,0.6,0.4,1,1,1s1-0.4,1-1v-1h6v1c0,0.6,0.4,1,1,1s1-0.4,1-1v-1
	h2c0.6,0,1,0.4,1,1v3h-16v-3C4.1,10.5,4.5,10.1,5.1,10.1z M19.1,26.1h-14c-0.6,0-1-0.4-1-1v-9h16v9C20.1,25.6,19.6,26.1,19.1,26.1z"
	/>
<polygon points="15.9,21.1 9.9,17.6 9.9,24.5 "/>
</svg>
