<?xml version="1.0" encoding="utf-8"?>
<!-- Generator: Adobe Illustrator 25.2.1, SVG Export Plug-In . SVG Version: 6.00 Build 0)  -->
<svg version="1.1" id="Layer_1" xmlns="http://www.w3.org/2000/svg" xmlns:xlink="http://www.w3.org/1999/xlink" x="0px" y="0px"
	 viewBox="0 0 24 28" style="enable-background:new 0 0 24 28;" xml:space="preserve">
<g>
	<path d="M13,26H5c-0.6,0-1-0.4-1-1v-9h16v2c0,0.6,0.4,1,1,1s1-0.4,1-1v-7c0-1.7-1.3-3-3-3h-2V7c0-0.6-0.4-1-1-1s-1,0.4-1,1v1H9V7
		c0-0.6-0.4-1-1-1S7,6.4,7,7v1H5c-1.7,0-3,1.3-3,3v14c0,1.7,1.3,3,3,3h8c0.6,0,1-0.4,1-1S13.6,26,13,26z M5,10h2v1c0,0.6,0.4,1,1,1
		s1-0.4,1-1v-1h6v1c0,0.6,0.4,1,1,1s1-0.4,1-1v-1h2c0.6,0,1,0.4,1,1v3H4v-3C4,10.4,4.4,10,5,10z"/>
	<path d="M22,23h-2v-2c0-0.6-0.4-1-1-1s-1,0.4-1,1v2h-2c-0.6,0-1,0.4-1,1s0.4,1,1,1h2v2c0,0.6,0.4,1,1,1s1-0.4,1-1v-2h2
		c0.6,0,1-0.4,1-1S22.6,23,22,23z"/>
</g>
</svg>
