<?xml version="1.0" encoding="utf-8"?>
<!-- Generator: Adobe Illustrator 25.2.1, SVG Export Plug-In . SVG Version: 6.00 Build 0)  -->
<svg version="1.1" id="Layer_1" xmlns="http://www.w3.org/2000/svg" xmlns:xlink="http://www.w3.org/1999/xlink" x="0px" y="0px"
	 viewBox="0 0 879 878" style="enable-background:new 0 0 879 878;" xml:space="preserve">
<path d="M549.7,292.7c10,0,18.8-3.4,26.3-10.3c7.5-6.9,13.8-17.4,18.9-31.4l46.9-130.8h-20.7l-25.4,72.3c-1.7,4.6-3.2,8.8-4.3,12.7
	c-1.1,3.9-2.3,8-3.4,12.3h-0.9c-1.1-4.3-2.5-8.5-4.1-12.7c-1.6-4.2-3.2-8.4-4.9-12.7l-29.3-71.9h-21.1l50.4,121.8l-1.7,4.7
	c-6.9,18.1-15.8,27.1-26.7,27.1c-4.6,0-8.8-0.7-12.5-2.2l-3.9,17.6C537.3,291.5,542.8,292.7,549.7,292.7z M498.9,246.2
	c5.7,0,10.3-1,13.8-3l-2.6-17.2c-2.3,1.4-4.6,2.2-6.9,2.2c-3.2,0-4.7-1.4-4.7-4.3V67.6h-19.8v154.5c0,8,1.7,14.1,5.2,18.1
	C487.3,244.2,492.3,246.2,498.9,246.2z M379.2,246.2c6.6,0,12.9-1.4,18.9-4.3c6-2.9,12.2-7.3,18.5-13.3h0.9l0.9,14.6h18.1V120.1
	h-19.8v86.1c-12.1,14.1-23.5,21.1-34.4,21.1c-15.2,0-22.8-10.8-22.8-32.3v-74.9h-19.8v76.2c0,16.6,3.3,29.1,9.9,37.4
	C356.1,242,366,246.2,379.2,246.2z M250.6,246.2c14.6,0,25.9-4.5,33.8-13.6c7.9-9,11.8-21.9,11.8-38.5V80.5h-20.7v112.3
	c0,12.1-2,20.8-6,26.3s-10.5,8.2-19.4,8.2c-12.3,0-22.2-6.9-29.7-20.7l-15.9,9.9C213.4,236.3,228.8,246.2,250.6,246.2z M539.4,752.8
	c1.7-41.3,5.7-77.9,11.8-109.8c6.2-31.8,15.4-61.5,27.5-89.1c12.2-27.5,28.2-55.4,48-83.5H474.8v-26.7h189.4v15.9
	c-24.4,31.8-43.1,62.5-56.2,91.9s-22.2,60.2-27.5,92.3c-5.3,32.1-8.7,68.4-10.1,108.9H539.4z M39.2,860.8h800.5V340H39.2V860.8z
	 M232.1,752.8v-26.7h68.4V484.2h-56.4v-18.5c11.8-1.7,23-4.4,33.6-8.2s20.8-8.3,30.6-13.8h23.2v282.3h62v26.7H232.1z M22,878V0h108
	v35.7c0,6-2.4,10.3-7.3,12.9C107.2,57,99.5,70.6,99.5,89.5c0,12.9,4.6,24,13.8,33.4c9.2,9.3,20.1,14,32.7,14s23.5-4.7,32.7-14
	c9.2-9.3,13.8-20.4,13.8-33.4c0-18.9-7.7-32.6-23.2-40.9c-4.9-2.6-7.3-6.9-7.3-12.9V0h555.2v35.7c0,6-2.4,10.3-7.3,12.9
	c-15.5,8.3-23.2,21.9-23.2,40.9c0,12.9,4.6,24,13.8,33.4c9.2,9.3,20.1,14,32.7,14c12.6,0,23.5-4.7,32.7-14
	c9.2-9.3,13.8-20.4,13.8-33.4c0-18.9-7.7-32.6-23.2-40.9c-4.9-2.6-7.3-6.9-7.3-12.9V0h108v878H22z"/>
</svg>
