<?xml version="1.0" encoding="utf-8"?>
<!-- Generator: Adobe Illustrator 25.2.1, SVG Export Plug-In . SVG Version: 6.00 Build 0)  -->
<svg version="1.1" id="Layer_1" xmlns="http://www.w3.org/2000/svg" xmlns:xlink="http://www.w3.org/1999/xlink" x="0px" y="0px"
	 viewBox="0 0 879 878" style="enable-background:new 0 0 879 878;" xml:space="preserve">
<path d="M142,469.1l63.7-57.2c-0.9-5.7-1.3-11.2-1.3-16.4c0-25,9-44.8,26.9-59.6s42.1-22.2,72.5-22.2h287.1v106.7l161-143.3
	l-161-143.3v105H303.9c-54.5,0-96.8,14.8-127,44.3s-45.2,71-45.2,124.4c0,11.5,0.9,22.5,2.6,32.9C136,451,138.6,460.5,142,469.1z
	 M287.1,744.1v-105h287.1c54.5,0,96.8-14.8,127-44.3c30.1-29.6,45.2-71,45.2-124.4c0-11.8-0.9-22.8-2.6-33.1
	c-1.7-10.3-4.3-19.8-7.7-28.4l-63.7,57.2c0.9,5.5,1.3,10.9,1.3,16.4c0,25-9,44.8-26.9,59.6c-17.9,14.8-42.1,22.2-72.5,22.2H287.1
	V457.5l-161,143.3L287.1,744.1z M62.4,878c-16.9,0-31.6-6.2-43.9-18.5S0,832.5,0,815.6V62C0,45,6.2,30.5,18.7,18.3
	C31.2,6.1,45.9,0,62.8,0h752.8c16.9,0,31.6,6.2,43.9,18.5c12.3,12.3,18.5,27,18.5,43.9v753.2c0,16.9-6.2,31.6-18.5,43.9
	s-27,18.5-43.9,18.5H62.4z"/>
</svg>
