<?xml version="1.0" encoding="utf-8"?>
<!-- Generator: Adobe Illustrator 25.2.1, SVG Export Plug-In . SVG Version: 6.00 Build 0)  -->
<svg version="1.1" id="Layer_1" xmlns="http://www.w3.org/2000/svg" xmlns:xlink="http://www.w3.org/1999/xlink" x="0px" y="0px"
	 viewBox="0 0 879 759.8" style="enable-background:new 0 0 879 759.8;" xml:space="preserve">
<path d="M745.7,70c-4.2,3.5-7.8,3.4-10.8-0.4c-3-3.5-2.6-7,1.1-10.4c10.2-8.9,19.8-16,28.9-21.2c9.1-5.2,19.1-9.8,30-13.8l3.7,14.2
	c-10.2,3.7-19.2,8.1-27,13C763.7,56.4,755.1,62.6,745.7,70z M670.4,97.2c-4.5,0-6.7-3.2-6.7-9.7c0-6.5,2.2-9.7,6.7-9.7
	c4.2,0,6.3,3.2,6.3,9.7C676.8,94,674.6,97.2,670.4,97.2z M767.6,244c12.7,0,19-7.1,19-21.2c0-9.4-3-18-8.9-25.7
	c-6-7.7-12.7-11.5-20.1-11.5c-5.7,0-10.4,1.9-14,5.8c-3.6,3.8-5.4,8.9-5.4,15.1c0,9.2,3.1,17.8,9.3,25.7
	C753.7,240,760.4,244,767.6,244z M703.6,286.4c-12.4,0-21-4-25.9-11.9c-4.8-7.9-7.3-17.4-7.3-28.3c0-3.2,0.6-7.3,1.9-12.3
	c-7.4,1-14.7,1.9-21.6,2.6s-13.9,1.4-20.9,1.9l104.3-58.8l117.3-10.8l1.5-24.6l8.2-4.1l12.7,20.5c3.5,5.2,5.2,10.3,5.2,15.3
	c0,3.7-6.2,8.2-18.6,13.4c-12.4,5.2-34.6,12.4-66.7,21.6c1,4,1.5,8.8,1.5,14.5c0,9.4-5.2,18.9-15.6,28.3
	c-10.4,9.4-22.8,17.3-37.1,23.5C728.2,283.3,715.2,286.4,703.6,286.4z M625.7,119.2c-4.5,0-6.7-3.2-6.7-9.7c0-6.5,2.2-9.7,6.7-9.7
	c4.2,0,6.3,3.2,6.3,9.7C632.1,116,630,119.2,625.7,119.2z M581,141.5c-4.5,0-6.7-3.2-6.7-9.7c0-6.5,2.2-9.7,6.7-9.7
	c4.2,0,6.3,3.2,6.3,9.7C587.4,138.3,585.3,141.5,581,141.5z M532.6,168c-4.5,0-6.7-3.2-6.7-9.7c0-6.5,2.2-9.7,6.7-9.7
	c4.2,0,6.3,3.2,6.3,9.7C538.9,164.8,536.8,168,532.6,168z M329.6,344.9c19.9,0,43.9-4,72.1-11.9c28.2-7.9,58.5-18.6,91.1-32
	s65.4-28.6,98.5-45.4s64.9-34.5,95.3-52.7s57.6-36.1,81.6-53.6s42.9-33.5,56.8-48c13.9-14.5,20.9-26.5,20.9-35.9
	c0-7.9-3.1-14.3-9.3-19.2c-6.2-4.8-16.3-7.3-30.2-7.3c-1.7,0-3.4,0-5,0s-3.3,0.1-5,0.4c-3.2-7.7-9.9-13.7-19.9-17.9
	c-10.1-4.2-21.4-6.3-34.1-6.3c-12.4,0-32,5-58.7,15.1C657,40,625.7,53.7,590,71c-35.8,17.3-73.6,36.7-113.6,58.5
	c-40,21.7-79.7,44.5-119.2,68.3s-76.2,47.4-110.2,70.6s-62.8,44.6-86.4,64.2c43.9,6,78.4,9.5,103.4,10.6S310.8,344.9,329.6,344.9z
	 M474.1,269.3c5.2,0,9.6-2,13-6s5.2-8.8,5.2-14.5c0-9.4-3-18.1-9.1-25.9c-6.1-7.8-12.7-11.7-19.9-11.7c-5.5,0-9.9,1.9-13.4,5.8
	c-3.5,3.8-5.2,8.6-5.2,14.3c0,9.4,3,18.1,9.1,26.1C459.9,265.3,466.7,269.3,474.1,269.3z M419.4,309.9c-13.2,0-23.2-3.3-30.2-9.9
	c-7-6.6-10.4-15.2-10.4-25.9c0-5,1-9.8,3-14.5h-4.5c-37,0-70.6-0.2-100.9-0.7c-30.3-0.5-59.1-1.2-86.4-2.2
	c-27.3-1-54.6-2.2-81.9-3.7s-56.6-3.1-87.9-4.8C6.7,247.3,0,240.2,0,226.8c0-4,0.3-9.8,0.9-17.5c0.6-7.7,1.2-13.8,1.7-18.3l6.3-0.7
	l22,33.5c53.6-5.7,110.9-11.2,171.7-16.6c60.8-5.3,122.1-9.7,183.8-13.2c61.7-3.5,120.6-5.2,176.7-5.2c7.4,0,11.2,1.7,11.2,5.2
	c0,2.5-2.1,4.8-6.3,7.1l-63.3,38c1,3.2,1.5,7,1.5,11.2c0,9.9-4.2,19.5-12.5,28.7c-8.3,9.2-19.1,16.6-32.2,22.3
	C448.3,307,434.3,309.9,419.4,309.9z M301.7,299.1c-4.5,0-6.7-3.2-6.7-9.7c0-6.5,2.2-9.7,6.7-9.7c4.2,0,6.3,3.2,6.3,9.7
	C308,295.9,305.9,299.1,301.7,299.1z M218.3,286.4l-68.5-131.1l25-17.5l111.7,103.9L218.3,286.4z M544.9,746.8l211.2-84.2l-133-27.2
	l-42.5,15.6l82.3,20.1l-28.3,11.5l-79-21.6L509.1,679l78.6,22L555,714l-80.8-21.2L425,712.1L544.9,746.8z M482,668.9l60.7-22.7
	l-62.2-13l-54.8,21.2L482,668.9z M158.7,347.5l-83.4-9.7c-4-0.5-7.4-1.6-10.4-3.4s-4.5-4-4.5-6.7c0-5,4.2-8.1,12.7-9.3l150.8-19
	c2.7-0.5,5,0.5,6.9,3c1.9,2.5,2.8,5.2,2.8,8.2c0,2.5-1.6,6.4-4.7,11.7c-3.1,5.3-9.9,10.4-20.5,15.3
	C197.8,342.5,181.3,345.8,158.7,347.5z M534.5,759.8L107.6,639.1l266.7-73l413.8,92L534.5,759.8z M403.7,646.2l56.6-20.5l-58.5-12.7
	l-57.4,18.6L403.7,646.2z M320.3,623.9l60-17.9l-54-11.9l-62.9,15.6L320.3,623.9z M329.6,359.8c-12.4,0-26.2-0.2-41.3-0.6
	s-33.1-1.4-53.8-3.2c-20.7-1.7-46-4.6-75.8-8.6v-32.4c23.1-18.9,51.5-39.7,85.1-62.4s70-45.9,109.1-69.5
	c39.1-23.6,78.6-46.3,118.4-68.2c39.9-21.9,77.8-41.4,113.8-58.7c36-17.3,67.8-31,95.3-41.2C708,5.1,728.7,0,742.3,0
	c11.7,0,22.8,1.9,33.5,5.6c10.7,3.7,20.2,10.3,28.7,19.7c18.4,0,32.3,3.6,41.9,10.8c9.6,7.2,14.3,16.9,14.3,29.1
	c0,10.9-7.1,24.3-21.2,40.2c-14.2,15.9-33.5,33.1-58.1,51.6c-24.6,18.5-52.4,37.2-83.4,56.2s-63.6,37.2-97.6,54.8
	c-34,17.5-67.8,33.1-101.3,46.9c-33.5,13.8-64.9,24.7-94,32.8C375.9,355.8,350.7,359.8,329.6,359.8z"/>
</svg>
