<?xml version="1.0" encoding="utf-8"?>
<!-- Generator: Adobe Illustrator 25.2.1, SVG Export Plug-In . SVG Version: 6.00 Build 0)  -->
<svg version="1.1" id="Layer_1" xmlns="http://www.w3.org/2000/svg" xmlns:xlink="http://www.w3.org/1999/xlink" x="0px" y="0px"
	 viewBox="0 0 879 878" style="enable-background:new 0 0 879 878;" xml:space="preserve">
<path d="M615.9,170H262.1l161,272.9h-161l176.9,300l176.9-300h-161L615.9,170z M62.8,878c-16.9,0-31.6-6.2-44.1-18.5S0,832.7,0,816
	V62.4c0-16.9,6.2-31.6,18.5-43.9S45.5,0,62.4,0h753.2c16.9,0,31.6,6.2,43.9,18.5c12.3,12.3,18.5,27,18.5,43.9v753.2
	c0,16.9-6.2,31.6-18.5,43.9s-27,18.5-43.9,18.5L62.8,878L62.8,878z"/>
</svg>
