<?xml version="1.0" encoding="utf-8"?>
<!-- Generator: Adobe Illustrator 25.2.1, SVG Export Plug-In . SVG Version: 6.00 Build 0)  -->
<svg version="1.1" id="Layer_1" xmlns="http://www.w3.org/2000/svg" xmlns:xlink="http://www.w3.org/1999/xlink" x="0px" y="0px"
	 viewBox="0 0 879 878" style="enable-background:new 0 0 879 878;" xml:space="preserve">
<path d="M439.5,77.5c-33.9,0-67.1-1.1-99.9-3.4c-32.7-2.3-62.3-5.3-88.7-9c-26.4-3.7-47.5-7.9-63.3-12.5
	c-15.8-4.6-23.7-9.2-23.7-13.8c0-4.6,7.9-9.2,23.7-13.8c15.8-4.6,36.9-8.8,63.3-12.5c26.4-3.7,56-6.7,88.7-9
	c32.7-2.3,66-3.4,99.9-3.4s67.1,1.1,99.9,3.4c32.7,2.3,62.3,5.3,88.7,9c26.4,3.7,47.5,7.9,63.3,12.5c15.8,4.6,23.7,9.2,23.7,13.8
	c0,4.6-7.9,9.2-23.7,13.8c-15.8,4.6-36.9,8.8-63.3,12.5c-26.4,3.7-56,6.7-88.7,9C506.6,76.3,473.4,77.5,439.5,77.5z M439.5,160.1
	c-39,0-76.3-1.6-111.7-4.9c-35.4-3.3-66.3-7.7-92.5-13.3c-26.3-5.6-45.3-11.8-57-18.7c-6.9-4-11-8-12.3-12.1
	c-1.3-4-1.9-9.5-1.9-16.4v-56h17.2v77.5l-6.5-14.2c21.5,12.9,54.9,23,100.1,30.1c45.2,7.2,100.1,10.8,164.6,10.8
	s119.4-3.6,164.6-10.8c45.2-7.2,78.5-17.2,100.1-30.1l-6.5,14.2V38.7H715v56c0,6.9-0.6,12.3-1.9,16.4c-1.3,4-5.4,8-12.3,12.1
	c-11.8,6.9-30.8,13.1-57,18.7c-26.3,5.6-57,10-92.3,13.3C516.1,158.5,478.8,160.1,439.5,160.1z M673.2,740.7
	c0-72.3-15.8-132.1-47.3-179.3c-31.6-47.2-81.6-85-150.2-113.4v-15.5c67.7-28.1,117.6-66.9,149.6-116.2s48-113.8,48-193.2h17.2
	c0,82.1-16.6,149.1-49.7,201s-84.1,92.5-153,121.8l-0.9-11.6c69.7,29.6,121.1,69.3,154.1,119.2s49.5,112.3,49.5,187.2H673.2z
	 M188.6,740.7c0-74.9,16.5-137.3,49.5-187.2s84.4-89.7,154.1-119.2l-0.9,11.6c-68.9-29.3-119.9-69.9-153-121.8s-49.7-118.9-49.7-201
	h17.2c0,79.5,16,143.9,48,193.2s81.8,88.1,149.6,116.2V448c-68.3,28.4-118.3,66.2-150,113.4c-31.7,47.2-47.6,107-47.6,179.3H188.6z
	 M439.5,789.3c-33.9,0-67.1-1.1-99.9-3.4c-32.7-2.3-62.3-5.3-88.7-9s-47.5-7.9-63.3-12.5s-23.7-9.2-23.7-13.8
	c0-4.6,7.9-9.2,23.7-13.8s36.9-8.8,63.3-12.5c26.4-3.7,56-6.7,88.7-9c32.7-2.3,66-3.4,99.9-3.4s67.1,1.1,99.9,3.4
	c32.7,2.3,62.3,5.3,88.7,9c26.4,3.7,47.5,7.9,63.3,12.5S715,746,715,750.6c0,4.6-7.9,9.2-23.7,13.8s-36.9,8.8-63.3,12.5
	s-56,6.7-88.7,9C506.6,788.2,473.4,789.3,439.5,789.3z M439.5,878c-39,0-76.3-1.2-111.7-3.7c-35.4-2.4-66.4-6.2-93-11.4
	c-26.5-5.2-46.4-11.5-59.6-18.9c-5.2-3.2-8.3-6-9.5-8.6c-1.1-2.6-1.7-6.6-1.7-12.1v-72.7h17.2v88.7l-6.5-14.2
	c21.2,12.6,54.5,21.7,99.9,27.3s100.3,8.4,164.8,8.4s119.5-2.8,164.8-8.4s78.6-14.7,99.9-27.3l-6.5,14.2v-88.7H715v72.7
	c0,5.5-0.6,9.5-1.7,12.1s-4.3,5.5-9.5,8.6c-12.9,7.5-32.7,13.8-59.4,18.9c-26.7,5.2-57.7,9-93,11.4C516.1,876.8,478.8,878,439.5,878
	z M278.5,743.3c26.1-20.4,50.9-44.3,74.5-71.9s42.8-60.8,57.9-99.6c15.1-38.9,22.6-85.1,22.6-138.8c0-10.9-1.7-19.5-5.2-25.8
	c-3.4-6.3-11.6-13.1-24.5-20.2c-16.6-9.5-33.3-21-49.9-34.6c-16.6-13.6-31.4-28.5-44.3-44.5c-12.9-16.1-22.2-32.7-28-49.9
	c24.1,0,51.4-1.5,81.8-4.5c30.4-3,61.3-7,92.7-12.1s61-10.8,88.7-17.4c27.7-6.6,50.9-13.5,69.5-20.7c-2.9,39.3-15.1,73.2-36.8,101.6
	s-54.2,54.4-97.5,77.9c-12.6,6.9-20.7,13.7-24.1,20.4c-3.4,6.7-5.2,15.7-5.2,26.9c0,53.1,5.3,98.6,15.9,136.6
	c10.6,38,28.2,70.8,52.7,98.3c24.5,27.5,57.9,52.2,100.1,74L278.5,743.3z"/>
</svg>
