<?xml version="1.0" encoding="utf-8"?>
<!-- Generator: Adobe Illustrator 25.2.1, SVG Export Plug-In . SVG Version: 6.00 Build 0)  -->
<svg version="1.1" id="Layer_1" xmlns="http://www.w3.org/2000/svg" xmlns:xlink="http://www.w3.org/1999/xlink" x="0px" y="0px"
	 viewBox="0 0 879 878" style="enable-background:new 0 0 879 878;" xml:space="preserve">
<path d="M288.8,749.3c16.4,0,29.8-6.6,40.5-19.8L738.1,213c7.5-9.5,11.2-20.2,11.2-32.3c0-14.6-5-26.9-15.1-36.8s-22.4-14.8-37-14.8
	c-8,0-15.6,1.6-22.6,4.9c-7,3.3-13,8.1-17.9,14.4l-348.6,442l-78.8-231.6c-3.7-10.9-9.9-19.4-18.5-25.4c-8.6-6-18.5-9-29.7-9
	c-14.1,0-26.2,5-36.4,15.1c-10.2,10-15.3,22.1-15.3,36.2c0,5.5,0.7,10.3,2.2,14.6l107.6,324.1c3.4,10.6,9.7,19.1,18.7,25.4
	S277.3,749.3,288.8,749.3z M62.8,878c-16.9,0-31.6-6.2-44.1-18.5S0,832.7,0,816V62.4c0-16.9,6.2-31.6,18.5-43.9
	C30.8,6.2,45.5,0,62.4,0h753.2c16.9,0,31.6,6.2,43.9,18.5c12.3,12.3,18.5,27,18.5,43.9v753.2c0,16.9-6.2,31.6-18.5,43.9
	s-27,18.5-43.9,18.5H62.8z"/>
</svg>
